<svg width="78" height="80" viewBox="0 0 78 80" fill="none" xmlns="http://www.w3.org/2000/svg">
<path d="M18.6655 20.0039C18.7918 14.7396 20.9394 9.72584 24.6628 6.0024C28.3862 2.27895 33.3999 0.13153 38.6642 0.0051706C41.3071 -0.0556099 43.9349 0.420004 46.3887 1.40352C48.8425 2.38703 51.0714 3.85794 52.9407 5.72724C54.81 7.59654 56.2809 9.82551 57.2644 12.2793C58.2479 14.7332 58.7237 17.361 58.6629 20.0039C58.6629 32.0031 50.6634 40.0026 38.6642 40.0026C36.0213 40.0634 33.3935 39.5875 30.9396 38.604C28.4858 37.6205 26.2569 36.1496 24.3876 34.2803C22.5183 32.411 21.0474 30.1823 20.0639 27.7284C19.0804 25.2746 18.6047 22.6468 18.6655 20.0039ZM77.3283 80C73.3286 66.6675 69.3289 56.0016 66.6624 52.0018C62.811 47.9792 57.5598 45.5923 51.9966 45.3356H26.6649C18.6655 45.3356 13.3325 49.3353 11.9992 52.0018C8.00541 56.0075 4.00567 65.3402 0 80H77.3283Z" fill="#14A8C6"/>
</svg>
