<svg width="80" height="80" viewBox="0 0 80 80" fill="none" xmlns="http://www.w3.org/2000/svg">
<path d="M39.6461 28.3186C38.9162 28.3325 38.1971 28.1407 37.5711 27.7651C36.9451 27.3895 36.4375 26.8453 36.1062 26.1947C34.6903 25.4868 34.6903 24.0708 34.6903 21.9469C34.6903 20.531 34.6903 19.1151 36.1062 18.4071C36.4375 17.7566 36.9451 17.2123 37.5711 16.8367C38.1971 16.4611 38.9162 16.2693 39.6461 16.2832C40.4599 16.3362 41.255 16.5513 41.9845 16.9161C42.714 17.2808 43.3632 17.7878 43.8938 18.4071C44.7798 19.3761 45.2831 20.6343 45.3098 21.9469V24.7788C44.6018 25.4868 44.6018 26.1947 43.8938 26.1947C43.1859 26.9027 42.4779 27.6107 41.7699 27.6107C41.062 27.6107 40.354 28.3186 39.6461 28.3186ZM34.6903 32.5664L45.3098 30.4425V61.5929H34.6903V32.5664Z" fill="#14A8C6"/>
<path d="M39.646 4.42076e-06C17.6992 4.42076e-06 5.5253e-05 18.4071 5.5253e-05 40.354C-0.00864791 45.5628 1.01089 50.7221 3.0002 55.5361C4.98952 60.3501 7.90947 64.7241 11.5927 68.4073C15.2759 72.0905 19.6499 75.0104 24.4639 76.9997C29.2779 78.9891 34.4372 80.0087 39.646 80C62.3009 80 80 62.3008 80 40.354C80.0025 35.0539 78.9604 29.8054 76.9333 24.9083C74.9062 20.0112 71.9338 15.5615 68.1861 11.8138C64.4384 8.0661 59.9889 5.09379 55.0918 3.0667C50.1947 1.0396 44.9461 -0.00247688 39.646 4.42076e-06ZM42.4779 74.3362C33.4652 74.3362 24.8217 70.7559 18.4488 64.383C12.0759 58.0101 8.49562 49.3666 8.49562 40.354C8.43727 35.8752 9.27637 31.43 10.9635 27.2807C12.6506 23.1314 15.1516 19.362 18.3188 16.1948C21.486 13.0276 25.2554 10.5266 29.4047 8.83953C33.554 7.15242 37.9991 6.31333 42.4779 6.37168C60.885 6.37168 75.7522 21.2389 75.7522 40.354C75.7522 58.761 60.885 74.3362 42.4779 74.3362Z" fill="#14A8C6"/>
</svg>
