<svg width="81" height="168" viewBox="0 0 81 168" fill="none" xmlns="http://www.w3.org/2000/svg">
<circle cx="40" cy="30" r="30" fill="#82D200"/>
<path d="M30.8068 39.72C32.8548 40.84 34.9348 41.416 38.1028 41.416C43.4148 41.416 46.7428 38.536 46.7428 34.12C46.7428 30.504 44.6308 28.392 40.2788 28.072L45.9108 22.792L44.6948 19.88H32.6308V24.04H40.4388L35.0628 29.512L36.6628 31.656C37.0788 31.496 37.7188 31.4 38.3588 31.4C40.3108 31.4 41.4628 32.296 41.4628 34.088C41.4628 36.168 39.5428 37.128 37.2388 37.128C35.7348 37.128 34.0708 36.84 32.3108 35.976L30.8068 39.72Z" fill="white"/>
<path d="M37.9535 89.8605L43.5349 88L52.4651 96.9302L60.6512 100.651L75.5349 104.744L74.4186 119.628L69.9535 122.233L66.6047 128.186L71.4419 127.814L70.6977 140.093L72.186 146.419L77.3953 146.791L75.1628 150.884L66.9767 157.209L53.9535 153.86L47.6279 158.326L48 163.163L42.0465 163.907L32.7442 159.07L32.3721 160.558L23.0698 159.814L16.7442 155.349V154.605L21.9535 135.256L17.4884 127.442L16 121.488L1.86047 114.791L0 109.581L9.67442 106.605L12.6512 109.581L20.4651 108.837L18.6047 99.1628H21.5814C21.5814 99.1628 22.6977 102.512 23.0698 102.884C23.4419 103.256 27.1628 103.628 27.1628 103.628L30.8837 102.14L28.6512 99.907L36.093 95.4419L37.9535 89.8605Z" fill="#82D200"/>
<path fill-rule="evenodd" clip-rule="evenodd" d="M77.7674 168L76.2791 163.907L75.907 159.07L78.1395 156.837L80.7442 154.233V164.279L77.7674 168Z" fill="#82D200"/>
</svg>
