<svg width="70" height="161" viewBox="0 0 70 161" fill="none" xmlns="http://www.w3.org/2000/svg">
<circle cx="35" cy="30" r="30" fill="#82D200"/>
<path d="M26.0948 36.872H35.4708V41H40.1108V36.872H42.6068V33.192L40.1108 33.288V19.56H36.0788L25.4548 34.44L26.0948 36.872ZM29.9988 33.768L35.4708 25.64V33.544L29.9988 33.768Z" fill="white"/>
<g clip-path="url(#clip0_759_386)">
<path d="M35 91C25.7174 91 16.815 94.6875 10.2513 101.251C3.68749 107.815 0 116.717 0 126C0 135.283 3.68749 144.185 10.2513 150.749C16.815 157.313 25.7174 161 35 161H69.6872V130.662C69.8892 129.116 69.9937 127.559 70 126C70 116.717 66.3125 107.815 59.7487 101.251C53.185 94.6875 44.2826 91 35 91V91ZM64.6234 130.706V155.891H35.8489C30.1049 155.891 24.4898 154.188 19.7138 150.997C14.9377 147.806 11.2153 143.27 9.01712 137.963C6.81895 132.656 6.24381 126.817 7.36443 121.183C8.48504 115.549 11.2511 110.374 15.3127 106.313C19.3744 102.251 24.5493 99.485 30.183 98.3644C35.8167 97.2438 41.6562 97.819 46.963 100.017C52.2699 102.215 56.8057 105.938 59.9969 110.714C63.1882 115.49 64.8915 121.105 64.8915 126.849C64.8853 128.139 64.7958 129.428 64.6234 130.706V130.706Z" fill="#82D200"/>
<path d="M36.0723 106.623C23.9936 106.623 14.2234 115.053 14.2234 127.966C14.2234 137.796 21.134 147.506 35.5064 147.506C39.5915 147.532 43.6413 146.747 47.4213 145.198L45.7234 139.806C42.6716 141.112 39.3915 141.8 36.0723 141.832C25.6468 141.832 21.6404 134.534 21.6404 127.623C21.6404 118.523 27.5979 112.402 35.8489 112.402C43.8766 112.402 48.7617 117.406 48.7617 124.317C48.7617 128.785 47.0191 132.792 44.2936 134.743V124.317C44.2936 118.821 41.6574 116.453 36.8468 116.453C33.1947 116.363 29.6163 117.489 26.6745 119.655L29.3702 123.2C31.2761 122.108 33.4162 121.49 35.6106 121.398C36.2993 121.343 36.9823 121.558 37.5157 121.997C38.0491 122.436 38.3913 123.065 38.4702 123.751V125.24C35.1505 125.283 31.835 125.492 28.5362 125.866C27.2143 127.235 26.4864 129.071 26.5106 130.974C26.5106 134.564 28.417 137.989 33.8681 137.989C35.9712 138.053 38.0454 137.488 39.8255 136.366L43.6383 137.93C48.9702 136.694 55.8213 132.151 55.8213 123.036C55.7766 113.251 47.6596 106.623 36.0723 106.623ZM38.4851 133.134C37.6155 133.423 36.7058 133.574 35.7893 133.581C33.9872 133.581 32.5872 133.134 32.5872 131.049C32.5742 130.402 32.6698 129.758 32.8702 129.143C34.2106 128.8 36.9659 128.472 38.4851 128.189V133.134Z" fill="#82D200"/>
</g>
<defs>
<clipPath id="clip0_759_386">
<rect width="70" height="70" fill="white" transform="translate(0 91)"/>
</clipPath>
</defs>
</svg>
