<svg width="115" height="166" viewBox="0 0 115 166" fill="none" xmlns="http://www.w3.org/2000/svg">
<circle cx="57" cy="30" r="30" fill="#82D200"/>
<path d="M48.2228 41H63.6468V36.456L54.3988 37.032C59.7748 32.776 63.1348 29.576 63.1348 25.352C63.1348 21.608 60.2868 19.464 55.9348 19.464C52.7348 19.464 50.1108 20.552 47.9028 22.536L50.3988 25.832C51.7428 24.52 53.8228 23.752 55.1988 23.752C56.5428 23.752 57.6628 24.328 57.6628 25.64C57.6628 29.128 52.5428 34.184 48.2228 37.928V41Z" fill="white"/>
<path d="M25.3334 110.889C32.0001 110.889 36.889 106 36.889 99.3333C36.889 93.1111 32.0001 88.2222 25.3334 88.2222C19.1112 88.2222 13.7779 93.1111 13.7779 99.3333C13.7669 100.854 14.0582 102.361 14.635 103.768C15.2118 105.175 16.0626 106.454 17.1378 107.529C18.2131 108.604 19.4913 109.455 20.8983 110.032C22.3053 110.609 23.8129 110.9 25.3334 110.889V110.889Z" fill="#82D200"/>
<path d="M89.3334 110.889C90.854 110.9 92.3615 110.609 93.7685 110.032C95.1755 109.455 96.4538 108.604 97.529 107.529C98.6042 106.454 99.455 105.175 100.032 103.768C100.609 102.361 100.9 100.854 100.889 99.3333C100.889 93.1111 95.5556 88.2222 89.3334 88.2222C82.6667 88.2222 77.7778 93.1111 77.7778 99.3333C77.7778 106 82.6667 110.889 89.3334 110.889Z" fill="#82D200"/>
<path d="M57.3332 112.667C59.093 112.699 60.8412 112.376 62.4735 111.717C64.1057 111.059 65.5884 110.078 66.8329 108.833C68.0775 107.588 69.0584 106.106 69.7171 104.474C70.3758 102.841 70.6987 101.093 70.6666 99.3333C70.6572 95.8 69.2494 92.414 66.7509 89.9156C64.2525 87.4171 60.8666 86.0094 57.3332 86C50.2221 86 44.4443 92.2222 44.4443 99.3333C44.4443 106.889 50.2221 112.667 57.3332 112.667Z" fill="#82D200"/>
<path d="M66.2222 117.556H48.4445C43.5556 118 39.5556 120.222 37.7778 122C33.7778 126.889 28.8889 166 28.8889 166H36.8889L41.3334 142V166H73.7778V142L78.2222 166H86.2222C86.2222 163.778 80.8889 126.889 76.8889 122C75.5556 120.222 71.5556 118 66.2222 117.556ZM72 138C72 138.444 72 138.889 71.5556 138.889H66.6667L64.8889 140.667L62.6667 138.889H58.2222C57.9915 138.874 57.7742 138.775 57.6107 138.612C57.4472 138.448 57.3487 138.231 57.3334 138V126C57.3334 125.556 57.7778 125.556 58.2222 125.556H62.2222L64.8889 127.778L67.1111 125.556H71.5556C72 125.556 72 125.556 72 126V138Z" fill="#82D200"/>
<path d="M64.8889 130.889L62.2222 128.222H60V136.667H62.2222V131.333L64.8889 134L67.1111 131.333V136.667H69.7778V128.222H67.5556L64.8889 130.889Z" fill="#82D200"/>
<path d="M94.2221 128.667L91.5555 126H89.3333V134H91.5555V128.667L94.2221 131.333L96.4444 128.667V134H99.111V126H96.8888L94.2221 128.667Z" fill="#82D200"/>
<path d="M106.222 119.333C103.648 117.051 100.329 115.787 96.8889 115.778C94.6666 115.778 92.4444 115.333 90.2222 115.333H88C85.7778 115.333 83.5555 115.778 81.3333 115.778C79.1805 115.696 77.0414 116.154 75.1111 117.111C76.6049 117.924 77.956 118.974 79.1111 120.222C82.6666 124.667 86.2222 146.444 88 158H103.556V137.111L107.556 158H114.667C114.667 156.222 109.778 123.778 106.222 119.333ZM101.333 135.333C101.333 136.222 101.333 136.222 100.889 136.222H96L94.2222 138.444L92 136.222H87.5555C87.3248 136.207 87.1075 136.108 86.944 135.945C86.7805 135.781 86.6819 135.564 86.6666 135.333V123.333C86.6666 122.889 87.1111 122.889 87.5555 122.889H91.5555L94.2222 125.111L96.4444 122.889H100.889C101.333 122.889 101.333 122.889 101.333 123.333V135.333Z" fill="#82D200"/>
<path d="M29.7779 126H27.5557V134H29.7779V128.667L32.0001 130.889C32.0001 130 32.4446 129.111 32.4446 128.222V128.667L29.7779 126Z" fill="#82D200"/>
<path d="M30.6667 136.667L30.2222 136.222H25.7778C25.5471 136.207 25.3297 136.108 25.1662 135.945C25.0027 135.781 24.9042 135.564 24.8889 135.333V123.333C24.8889 122.889 25.3333 122.889 25.7778 122.889H29.7778L32.4444 125.111L34.2222 123.333C34.6667 122 35.1111 120.667 35.5556 120.222C36.7107 118.974 38.0618 117.924 39.5556 117.111C37.6253 116.154 35.4862 115.696 33.3333 115.778C31.1111 115.778 28.8889 115.333 26.6667 115.333H24.4444C22.2222 115.333 20 115.778 17.3333 115.778C14.0219 115.768 10.8356 117.043 8.44444 119.333C4.88889 123.778 0 158 0 158H7.11111L11.1111 137.111V158H27.1111C28 151.778 29.3333 143.778 30.6667 136.667Z" fill="#82D200"/>
</svg>
