<svg width="87" height="161" viewBox="0 0 87 161" fill="none" xmlns="http://www.w3.org/2000/svg">
<circle cx="43" cy="30" r="30" fill="#82D200"/>
<path d="M34.3828 40.2C36.0468 40.904 38.2228 41.416 40.8148 41.416C46.3508 41.416 49.4868 38.12 49.4868 33.512C49.4868 29.832 46.8628 27.336 42.2548 27.336C41.1988 27.336 40.2068 27.432 39.5668 27.624L39.8228 24.04H48.7188V19.88H35.8868L34.8307 30.28L36.4948 31.88C37.7428 31.336 38.6708 31.048 40.2068 31.048C42.5108 31.048 43.9828 32.136 43.9828 34.024C43.9828 36.2 42.4788 37.192 40.2068 37.192C38.6708 37.192 37.4548 36.936 35.7908 36.36L34.3828 40.2Z" fill="white"/>
<path d="M80.9557 86.8599C79.1508 85.0054 76.9926 83.5315 74.6086 82.525C72.2245 81.5185 69.663 81 67.0752 81C64.4874 81 61.9259 81.5185 59.5418 82.525C57.1578 83.5315 54.9996 85.0054 53.1947 86.8599C50.0363 90.0183 48.2077 94.0079 47.5428 98.1637H0V150.86H24.1039L34.4103 161L44.5506 150.86H68.6544V120.273C73.3052 119.945 77.6778 117.936 80.9557 114.621C84.6287 110.935 86.691 105.944 86.691 100.74C86.691 95.5369 84.6287 90.5456 80.9557 86.8599ZM38.7324 108.304L43.8856 110.797V124.927H38.7324V108.304ZM24.7688 108.304L29.922 110.797V124.927H24.7688V108.304ZM35.574 144.543C22.9402 144.543 17.122 137.561 15.2935 135.566C17.787 133.073 19.1169 132.408 19.1169 132.408C19.1169 132.408 24.1039 139.39 34.4103 139.39C44.5506 139.39 49.5376 132.408 49.5376 132.408L54.0259 135.068C54.0259 135.068 48.3739 144.543 35.574 144.543ZM73.8077 97.1663L72.9765 99.9923H63.335V101.821L72.644 101.322L71.3142 104.314H63.6674C64.9973 108.47 67.4908 110.133 71.6466 110.133C72.9765 110.133 74.3064 110.133 75.47 109.301H75.9687L76.7999 111.795C75.1375 112.626 73.4752 113.125 70.8155 113.125C64.9973 113.125 61.1739 109.8 60.0103 104.314H57.0181L57.8493 102.153H59.5116V99.9923H57.0181L57.8493 97.9975H60.0103C60.8415 91.6806 64.9973 88.356 70.483 88.356C72.9765 88.356 75.1375 89.1871 76.7999 90.0183L77.1323 90.3508L75.47 92.8443C73.8077 92.0131 72.644 91.6806 70.483 91.6806C67.1583 91.6806 64.4986 93.6754 63.6674 97.4988L73.8077 97.1663Z" fill="#82D200"/>
</svg>
