<svg width="80" height="166" viewBox="0 0 80 166" fill="none" xmlns="http://www.w3.org/2000/svg">
<circle cx="40" cy="30" r="30" fill="#82D200"/>
<path d="M39.4228 41H44.9268V19.112L32.6068 24.712L33.4708 27.752L39.4228 26.248V41Z" fill="white"/>
<path d="M77.9422 98.0063L67.9937 88.0578C67.3419 87.4031 66.5668 86.8841 65.7131 86.5309C64.8594 86.1776 63.9441 85.9972 63.0203 86L63.75 86.0782C61.875 86.0782 60.625 87.3282 59.2968 88.6563L6.95308 138.344C6.53745 138.769 6.37339 138.823 6.24995 139.203L0.0905742 163.011C-0.0245659 163.413 -0.0300284 163.839 0.0747535 164.243C0.179535 164.648 0.390744 165.018 0.686469 165.314C0.982193 165.609 1.35166 165.82 1.75654 165.925C2.16142 166.03 2.58696 166.025 2.98901 165.909L26.3281 160.297C26.3953 160.278 27.5437 159.784 27.8906 159.438L77.1875 107.406C78.514 106.081 80 104.861 80 102.98C80.0028 102.056 79.8224 101.141 79.4691 100.287C79.1159 99.4332 78.5969 98.6581 77.9422 98.0063V98.0063ZM4.99995 161.781L10.139 144.916L21.6406 156.781L4.99995 161.781ZM25.5609 153.705L11.1953 142.334L53.0703 99.6657L67.4859 111.684L25.5609 153.705ZM74.6234 104.642L69.6468 109.62L56.3843 96.3485L61.3625 91.3719C61.5793 91.1541 61.8372 90.9814 62.1212 90.8639C62.4053 90.7464 62.7098 90.6865 63.0172 90.6875V90.6875C63.3249 90.6861 63.6299 90.7458 63.9144 90.863C64.199 90.9802 64.4575 91.1526 64.675 91.3703L74.625 101.323C75.0644 101.763 75.3112 102.359 75.3112 102.981C75.3112 103.602 75.0644 104.198 74.625 104.638L74.6234 104.642Z" fill="#82D200"/>
</svg>
