<svg width="250" height="250" viewBox="0 0 250 250" fill="none" xmlns="http://www.w3.org/2000/svg">
<circle cx="125" cy="125" r="125" fill="#82D200"/>
<path d="M78.9891 111H97.3051V105.604L86.3231 106.288C92.7071 101.234 96.6971 97.434 96.6971 92.418C96.6971 87.972 93.3151 85.426 88.1471 85.426C84.3471 85.426 81.2311 86.718 78.6091 89.074L81.5731 92.988C83.1691 91.43 85.6391 90.518 87.2731 90.518C88.8691 90.518 90.1991 91.202 90.1991 92.76C90.1991 96.902 84.1191 102.906 78.9891 107.352V111ZM110.19 111.494C115.814 111.494 119.956 106.402 119.956 98.308C119.956 90.214 115.814 85.426 110.19 85.426C104.566 85.426 100.538 90.29 100.538 98.308C100.538 106.326 104.566 111.494 110.19 111.494ZM110.19 106.478C108.252 106.478 107.036 103.514 107.036 98.308C107.036 94.128 107.91 90.252 110.19 90.252C112.47 90.252 113.496 94.09 113.496 98.308C113.496 103.514 112.508 106.478 110.19 106.478ZM121.593 102.982H124.975C126.229 107.96 129.839 111.456 136.375 111.456C138.389 111.456 140.593 111.038 142.379 110.088L141.049 106.098C139.643 106.782 138.465 107.01 137.249 107.01C134.095 107.01 132.157 105.718 131.017 102.982H136.603L137.857 99.41L130.371 100.018C130.257 99.144 130.257 98.308 130.257 97.624H138.161L139.339 94.128L130.637 94.736C131.549 92.038 133.563 90.1 136.869 90.1C138.389 90.1 139.301 90.328 140.555 90.898L142.531 87.25C140.859 86.034 138.769 85.426 136.337 85.426C130.257 85.426 126.419 88.77 124.633 95.116L122.619 95.344L121.859 97.624H124.481C124.443 98.004 124.443 98.346 124.443 98.688C124.443 99.182 124.481 99.752 124.557 100.36L122.467 100.512L121.593 102.982ZM169.771 111.494V98.156C169.771 93.634 167.035 91.582 162.285 91.582C159.207 91.582 156.889 92.456 154.647 94.014L156.129 96.104C157.763 95.002 160.157 94.128 162.247 94.128C164.907 94.128 166.503 95.306 166.503 98.042V100.474C163.197 100.474 158.599 100.588 155.103 101.044C154.115 102.146 153.507 103.856 153.507 105.528C153.507 108.53 155.483 111.494 160.499 111.494C162.893 111.494 165.135 110.696 166.503 109.67L169.771 111.494ZM166.503 107.884C165.173 108.416 162.969 109.024 160.917 109.024C158.067 109.024 156.927 107.048 156.927 105.072C156.927 104.426 157.079 103.742 157.421 103.134C160.537 102.602 162.969 102.298 166.503 101.88V107.884ZM157.269 84.97L165.173 90.024L166.427 88.77L159.815 82.5L157.269 84.97ZM22.3402 152.288C22.3402 155.822 24.2782 157.494 26.9002 157.494C28.3822 157.494 29.7122 157.266 30.6242 156.924V155.252C30.0542 155.366 29.4462 155.442 28.8382 155.442C27.1282 155.442 25.6082 154.758 25.6082 152.022V128.994L22.3402 130.02V152.288ZM32.311 140.888H34.287L35.047 131.046H31.551L32.311 140.888ZM42.0464 134.238C43.3004 134.238 44.2884 133.364 44.2884 132.034C44.2884 130.704 43.3004 129.83 42.0464 129.83C40.8304 129.83 39.8424 130.704 39.8424 132.034C39.8424 133.364 40.8304 134.238 42.0464 134.238ZM40.4124 157H43.6804V137.582L40.4124 138.608V157ZM50.2835 157H53.5515V141.116C56.0215 140.546 57.8455 140.242 59.4795 140.242C62.7855 140.242 64.0015 141.61 64.0015 144.346V157H67.2695V144.498C67.2695 140.166 65.2935 137.582 60.7715 137.582C57.9215 137.582 55.4515 138.494 53.5515 139.444L50.2835 137.582V157ZM72.2953 156.468C73.6633 156.924 76.5513 157.494 79.4013 157.494C84.1133 157.494 87.3813 155.404 87.3813 151.756C87.3813 148.754 84.8733 147.462 82.1753 146.588C79.0593 145.562 75.7153 145.03 75.7153 142.864C75.7153 141.23 77.1593 140.052 80.1613 140.052C82.5173 140.052 84.0753 140.546 85.4433 141.192L86.5833 138.76C84.9873 137.924 82.7833 137.582 79.8953 137.582C75.2593 137.582 72.4473 139.862 72.4473 143.016C72.4473 146.322 75.7153 147.614 78.7933 148.564C81.5673 149.4 84.2273 150.198 84.2273 152.022C84.2273 154.226 81.7953 155.214 78.8313 155.214C76.5513 155.214 74.3473 154.834 72.7893 154.53L72.2953 156.468ZM92.9418 152.934C92.9418 155.936 94.9178 157.494 98.1098 157.494C100.01 157.494 101.834 156.924 103.202 156.354L102.746 154.568C101.986 154.796 100.732 155.062 98.9838 155.062C97.3498 155.062 96.2098 154.074 96.2098 152.44V140.47H102.214L102.594 137.62L96.2098 138.418V132.072L92.9418 133.098V138.57L89.5598 138.912V140.47H92.9418V152.934ZM121.733 157.494V144.156C121.733 139.634 118.997 137.582 114.247 137.582C111.169 137.582 108.851 138.456 106.609 140.014L108.091 142.104C109.725 141.002 112.119 140.128 114.209 140.128C116.869 140.128 118.465 141.306 118.465 144.042V146.474C115.159 146.474 110.561 146.588 107.065 147.044C106.077 148.146 105.469 149.856 105.469 151.528C105.469 154.53 107.445 157.494 112.461 157.494C114.855 157.494 117.097 156.696 118.465 155.67L121.733 157.494ZM118.465 153.884C117.135 154.416 114.931 155.024 112.879 155.024C110.029 155.024 108.889 153.048 108.889 151.072C108.889 150.426 109.041 149.742 109.383 149.134C112.499 148.602 114.931 148.298 118.465 147.88V153.884ZM127.694 152.288C127.694 155.822 129.632 157.494 132.254 157.494C133.736 157.494 135.066 157.266 135.978 156.924V155.252C135.408 155.366 134.8 155.442 134.192 155.442C132.482 155.442 130.962 154.758 130.962 152.022V128.994L127.694 130.02V152.288ZM138.938 152.288C138.938 155.822 140.876 157.494 143.498 157.494C144.98 157.494 146.31 157.266 147.222 156.924V155.252C146.652 155.366 146.044 155.442 145.436 155.442C143.726 155.442 142.206 154.758 142.206 152.022V128.994L138.938 130.02V152.288ZM166.153 157.494V144.156C166.153 139.634 163.417 137.582 158.667 137.582C155.589 137.582 153.271 138.456 151.029 140.014L152.511 142.104C154.145 141.002 156.539 140.128 158.629 140.128C161.289 140.128 162.885 141.306 162.885 144.042V146.474C159.579 146.474 154.981 146.588 151.485 147.044C150.497 148.146 149.889 149.856 149.889 151.528C149.889 154.53 151.865 157.494 156.881 157.494C159.275 157.494 161.517 156.696 162.885 155.67L166.153 157.494ZM162.885 153.884C161.555 154.416 159.351 155.024 157.299 155.024C154.449 155.024 153.309 153.048 153.309 151.072C153.309 150.426 153.461 149.742 153.803 149.134C156.919 148.602 159.351 148.298 162.885 147.88V153.884ZM173.321 152.934C173.321 155.936 175.297 157.494 178.489 157.494C180.389 157.494 182.213 156.924 183.581 156.354L183.125 154.568C182.365 154.796 181.111 155.062 179.363 155.062C177.729 155.062 176.589 154.074 176.589 152.44V140.47H182.593L182.973 137.62L176.589 138.418V132.072L173.321 133.098V138.57L169.939 138.912V140.47H173.321V152.934ZM188.888 134.238C190.142 134.238 191.13 133.364 191.13 132.034C191.13 130.704 190.142 129.83 188.888 129.83C187.672 129.83 186.684 130.704 186.684 132.034C186.684 133.364 187.672 134.238 188.888 134.238ZM187.254 157H190.522V137.582L187.254 138.608V157ZM205.371 157.494C211.831 157.494 215.213 152.858 215.213 147.538C215.213 142.218 211.831 137.582 205.371 137.582C198.911 137.582 195.529 142.218 195.529 147.538C195.529 152.858 198.911 157.494 205.371 157.494ZM205.371 154.948C201.191 154.948 198.949 151.908 198.949 147.576C198.949 143.206 201.191 140.128 205.371 140.128C209.551 140.128 211.793 143.206 211.793 147.576C211.793 151.908 209.551 154.948 205.371 154.948ZM220.244 157H223.512V141.116C225.982 140.546 227.806 140.242 229.44 140.242C232.746 140.242 233.962 141.61 233.962 144.346V157H237.23V144.498C237.23 140.166 235.254 137.582 230.732 137.582C227.882 137.582 225.412 138.494 223.512 139.444L220.244 137.582V157Z" fill="white"/>
</svg>
